<?xml version="1.0" encoding="utf-8"?>
<!-- Generator: Adobe Illustrator 27.9.0, SVG Export Plug-In . SVG Version: 6.00 Build 0)  -->
<svg version="1.1" id="Layer_1" xmlns="http://www.w3.org/2000/svg" xmlns:xlink="http://www.w3.org/1999/xlink" x="0px" y="0px"
	 viewBox="400 400 1200 1200" style="enable-background:new 400 400 1200 1200;" xml:space="preserve" width="50px" height="50px">
<style type="text/css">
	.st0{fill:#FFFFFF;}
	.st1{fill:#FE0000;}
	.st2{fill:#FF610A;}
	.st3{fill:#FF5F09;}
	.st4{fill:#FEFF1D;}
	.st5{fill:#1114F5;}
	.st6{fill:#0BF838;}
	.st7{fill:#B2B2B0;}
</style>
<g>
	<g>
		<polygon points="489.1,822.3 468.6,816.6 457.1,857.5 437,851.8 449.4,807.4 428.8,801.7 410.4,867.7 512.7,896.2 518.7,874.7 
			477.7,863.2 		"/>
	</g>
	<g>
		<path d="M535,723.2l-19.5-9.6c-12.6-6.2-24.2-7.5-34.5-3.9c-10.2,3.6-18.3,11.3-24,22.8c-5.6,11.5-6.8,22.5-3.5,32.8
			c3.4,10.4,11.5,18.8,24.1,25l19.5,9.6c8,3.9,15.5,5.9,22.7,5.9c4.1,0,8.1-0.7,11.9-2c10.2-3.6,18.3-11.3,23.9-22.7
			c5.7-11.5,6.9-22.6,3.5-33C555.7,737.9,547.6,729.5,535,723.2z M536.6,771.8c-2.9,5.9-6.7,9.5-11.7,11c-5.1,1.5-10.8,0.6-17.5-2.7
			l-20.2-10c-6.7-3.3-10.9-7.3-12.8-12.3c-1.9-4.8-1.3-10,1.6-15.9c3-6,6.8-9.6,11.7-11.1c1.6-0.5,3.3-0.7,5-0.7
			c3.8,0,7.9,1.1,12.5,3.4l20.2,10c6.7,3.3,10.8,7.3,12.8,12.3C540.1,760.6,539.5,765.8,536.6,771.8z"/>
	</g>
	<g>
		<path d="M585.6,640.2c-0.5,0.1-0.9,0.2-1.4,0.3c-0.1-1.8-0.3-3.7-0.8-5.6c-1.3-5.8-5-11.1-11-15.7l-1.2-0.9
			c-5-3.9-10.4-6-16.1-6.3c-5.5-0.3-11,0.9-16.2,3.7c-5,2.7-9.6,6.7-13.7,12l-26.8,34.9l84.2,64.7l13.7-17.8l-31-23.8l16.7-21.7
			c1-1.3,1.8-1.9,2.3-1.9c0.7-0.1,1.7,0.5,2.2,1l28.6,22l13.6-17.7L599,644.4C594.6,641,590.1,639.6,585.6,640.2z M559.4,637.4
			l0.8,0.6c3,2.3,4.6,4.9,4.8,7.8c0.2,3.1-1.1,6.7-4.1,10.5l-12.5,16.2L529,657.7l12.5-16.2c3-3.9,6-6.2,9.1-6.7
			C553.5,634.2,556.4,635.1,559.4,637.4z"/>
	</g>
	<g>
		<path d="M678.2,571.3l-45.4-51.8l-16.8,14.8l45.5,51.9c4.1,4.7,5.9,9,5.5,13.1c-0.4,4.3-2.9,8.3-7.5,12.4s-9,6-13.2,5.8
			c-4.2-0.1-8.2-2.5-12.3-7.2l-45.5-51.9l-16.8,14.7l45.4,51.8c5.5,6.2,11.5,10.5,17.9,12.7c3.6,1.2,7.2,1.8,10.8,1.8
			c3,0,6.1-0.4,9.1-1.3c6.4-1.8,12.7-5.3,18.6-10.5c5.9-5.2,10.2-10.9,12.9-17.1c2.8-6.4,3.5-13.1,2.1-19.9
			C687.1,584,683.7,577.5,678.2,571.3z"/>
	</g>
	<g>
		<polygon points="733.6,458.1 750.5,536 694.8,479 667.2,493.9 717.5,587.4 736.9,576.9 708.1,523.5 752.2,568.7 776.9,555.4 
			763.4,493.6 792.2,547.1 811.6,536.7 761.2,443.2 		"/>
	</g>
	<g>
		<polygon points="943.4,397.1 913.2,402.5 885.6,443.4 879.4,408.6 857.3,412.5 876,517.1 898.1,513.1 891.7,477.4 933.1,506.8 
			963.8,501.3 901.7,457.9 		"/>
	</g>
	<g>
		<polygon points="967.5,502.3 1037.8,503.5 1038.1,482.1 990.3,481.4 990.6,460 1034,460.7 1034.3,439.4 991,438.6 991.3,417.8 
			1038.5,418.6 1038.8,397.3 969.2,396.1 		"/>
	</g>
	<g>
		<path d="M1127.5,411.8c-5.2-3.5-11.5-6-18.5-7.2c-6.9-1.3-13.4-1.2-19.3,0.1c-6.2,1.4-11.3,4.2-15.4,8.3c-4.1,4.1-6.8,9.5-8,15.8
			c-1.2,6.4-0.6,12,1.6,16.9c2.1,4.6,5.5,8.6,10.1,12c4.1,3,8.9,5.9,14.5,8.5l6.7,3c3.7,1.6,6.9,3.3,9.6,5c2.1,1.4,3.7,2.9,4.6,4.5
			c0.7,1.2,0.8,2.9,0.4,5c-0.6,3.4-2.3,5.8-5.4,7.6c-3.2,1.9-7.9,2.3-13.9,1.2c-5.9-1.1-10.2-3.4-13.2-7c-2.8-3.3-3.6-7.9-2.5-14.1
			l1.5-8.2l-21.9-4l-1.5,8.2c-1.5,8.3-1,15.8,1.6,22.1c2.6,6.4,6.8,11.7,12.6,15.7c5.5,3.8,12.2,6.5,19.7,7.8c3.6,0.7,7,1,10.3,1
			c3.7,0,7.1-0.4,10.4-1.2c6.4-1.6,11.8-4.6,16.1-8.9c4.3-4.4,7.1-9.9,8.3-16.5c1.2-6.7,0.6-12.6-1.9-17.6
			c-2.4-4.7-5.9-8.8-10.6-12.1c-4.2-3-9.2-5.7-14.8-8l-6.6-3c-3.6-1.6-6.7-3.2-9.1-4.9c-1.9-1.3-3.3-2.7-4.1-4.3
			c-0.6-1.2-0.8-2.9-0.4-4.9c0.6-3.3,2.1-5.3,4.7-6.6c3.2-1.5,7.3-1.8,12.2-0.9c3.6,0.6,6.6,1.8,9.1,3.4c2.2,1.4,3.7,3.1,4.7,5.2
			c0.9,2.1,1.1,4.8,0.5,8.2l-2,11l21.9,4l2-11c1.4-7.5,0.8-14.2-1.8-20C1137.1,420.2,1133,415.5,1127.5,411.8z"/>
	</g>
	<g>
		<rect x="1121" y="466.6" transform="matrix(0.3162 -0.9487 0.9487 0.3162 349.5131 1440.5865)" width="106.2" height="22.4"/>
	</g>
	<g>
		<path d="M1267.9,512.6c-3.2-4.1-7.3-8-12-11.8l-5.5-4.7c-3-2.5-5.5-5-7.4-7.2c-1.5-1.8-2.4-3.5-2.8-5.2c-0.3-1.4,0.1-3,1-4.8
			c1.5-3,3.4-4.5,6.3-5c3.4-0.6,7.5,0.3,12,2.5c3.2,1.6,5.9,3.5,7.8,5.8c1.7,1.9,2.7,4,3.1,6.3c0.3,2.2-0.3,5-1.8,8l-5,10l19.9,9.9
			l5-10c3.4-6.8,4.7-13.5,3.8-19.7c-0.9-6.2-3.4-11.9-7.7-17c-4.1-4.8-9.4-8.9-15.8-12.1c-6.3-3.1-12.6-4.9-18.6-5.3
			c-6.3-0.4-12.1,0.9-17.1,3.7c-5.1,2.8-9.2,7.2-12,13c-2.9,5.8-3.9,11.4-3.1,16.6c0.8,5,2.9,9.8,6.3,14.3c3.1,4,7,8.1,11.6,12.1
			l5.6,4.8c3.1,2.6,5.8,5.1,7.8,7.5c1.7,1.9,2.7,3.8,3.2,5.6c0.3,1.3,0,3-1,5c-1.6,3.1-3.9,5-7.3,5.8c-3.7,0.9-8.2,0-13.7-2.7
			c-5.4-2.7-8.9-6.1-10.8-10.4c-1.8-4-1.2-8.6,1.5-14.2l3.7-7.5l-19.9-9.9l-3.7,7.5c-3.8,7.6-5.3,14.9-4.6,21.7
			c0.7,6.9,3.3,13.1,7.8,18.6c4.3,5.2,9.9,9.6,16.7,13c6.8,3.4,13.5,5.3,19.9,5.5c0.5,0,1,0,1.5,0c6,0,11.5-1.4,16.4-4.1
			c5.3-3,9.5-7.6,12.5-13.6c3-6.1,4.1-12,3.1-17.5C1273.8,522,1271.4,517.1,1267.9,512.6z"/>
	</g>
	<g>
		<polygon points="1410.3,556 1360.1,601.5 1392.1,541.2 1369.3,522.6 1316.5,566.2 1350.9,507.6 1333.3,493.4 1279.7,586.7 
			1302.8,605.4 1358.1,559.6 1324.5,623.1 1347.4,641.8 1427.9,570.3 		"/>
	</g>
	<g>
		<path d="M1466.1,616.6l-103.8,39.8l14.4,18.4l23.5-9.1l20,25.5l-14.4,20.6l14.4,18.4l63.3-91.4L1466.1,616.6z M1420.8,657.4
			l31.8-12.3l-19.5,27.9L1420.8,657.4z"/>
	</g>
	<g>
		<path d="M1530.6,712.3l-109.4,19.3l10.7,20.8l24.8-4.5l14.8,28.8l-18.1,17.5l10.7,20.8l79.5-77.6L1530.6,712.3z M1512,737.7
			l-24.5,23.7l-9.1-17.7L1512,737.7z"/>
	</g>
	<g>
		<polygon points="1585.2,851.5 1519.8,870.1 1578.2,826.8 1569.6,796.5 1467.4,825.6 1473.5,847 1539.3,828.3 1480.5,871.7 
			1489.1,902 1591.3,872.9 		"/>
	</g>
</g>
<g>
	<g>
		<path class="st0" d="M1470.3,1000C1470.3,1000,1470.3,1000,1470.3,1000c0,259.7-210.6,470.3-470.3,470.3S529.8,1259.7,529.7,1000
			c0,0,0,0,0,0c0-259.7,210.5-470.3,470.3-470.3S1470.3,740.3,1470.3,1000z"/>
	</g>
	<g>
		<path d="M1000,1473.3c-63.9,0-125.9-12.5-184.2-37.2c-56.3-23.8-107-58-150.4-101.4c-43.5-43.5-77.6-94.1-101.4-150.4
			c-24.7-58.3-37.2-120.3-37.2-184.2c0-63.9,12.5-125.9,37.2-184.2c23.8-56.4,58-107,101.4-150.4c43.5-43.5,94.1-77.6,150.4-101.4
			c58.3-24.7,120.3-37.2,184.2-37.2s125.9,12.5,184.2,37.2c56.4,23.8,107,58,150.4,101.4c43.5,43.5,77.6,94.1,101.4,150.4
			c24.7,58.3,37.2,120.3,37.2,184.2v0c0,63.9-12.5,125.9-37.2,184.2c-23.8,56.3-58,107-101.4,150.4
			c-43.5,43.5-94.1,77.6-150.4,101.4C1125.9,1460.8,1063.9,1473.3,1000,1473.3z M1000,532.7c-257.7,0-467.3,209.6-467.3,467.3
			c0,257.7,209.6,467.3,467.3,467.3s467.2-209.6,467.3-467.2l3,0h-3C1467.3,742.3,1257.7,532.7,1000,532.7z"/>
	</g>
</g>
<g>
	<path class="st1" d="M1470.3,1000C1470.3,1000,1470.3,1000,1470.3,1000l-940.5,0c0,0,0,0,0,0c0-259.7,210.5-470.3,470.3-470.3
		S1470.3,740.3,1470.3,1000z"/>
	<path d="M1473.3,1003H526.7v-3c0-63.9,12.5-125.9,37.2-184.2c23.8-56.4,58-107,101.4-150.4c43.5-43.5,94.1-77.6,150.4-101.4
		c58.3-24.7,120.3-37.2,184.2-37.2s125.9,12.5,184.2,37.2c56.4,23.8,107,58,150.4,101.4c43.5,43.5,77.6,94.1,101.4,150.4
		c24.7,58.3,37.2,120.3,37.2,184.2L1473.3,1003L1473.3,1003z M532.8,997h934.5c-1.6-256.3-210.6-464.3-467.2-464.3
		S534.3,740.7,532.8,997z"/>
</g>
<g>
	<g>
		<g>
			<path d="M1339.6,1197.7c-8,73.3-184.4,84.1-184.4,84.1c-26.3,49-65.7,99.2-108.1,92.8c-25.5-3.9-46.5-43.2-60.8-80.4
				c8.7-25.1,15.5-54.1,20.3-85.1c0.3-2.1,0.6-4.1,0.9-6.2c52.3,130.7,102.8,9.7,102.8,9.7c238.7-8.9-80.1-213.4-83.1-215.3
				c57.6,11.5,116.9,32.2,168.2,57.5c1.9,0.9,3.8,1.9,5.7,2.8c28,14.1,53.4,29.6,74.7,45.6c1.3,1,2.5,1.9,3.8,2.9
				C1318.9,1136.5,1342.7,1168.9,1339.6,1197.7z"/>
		</g>
		<g>
			<path d="M1054.5,1378.1c-2.6,0-5.2-0.2-7.9-0.6c-22.2-3.4-43.4-31.1-63.1-82.3c-0.2-0.7-0.3-1.4,0-2.1
				c8.5-24.8,15.3-53.3,20.2-84.6c0.3-2.1,0.6-4.1,0.9-6.2c0.2-1.3,1.3-2.4,2.6-2.6s2.6,0.6,3.1,1.9c15.6,38.9,32.2,58.7,49.3,58.8
				c0.1,0,0.1,0,0.2,0c26.9,0,47.5-48.7,47.8-49.2c0.4-1.1,1.5-1.8,2.7-1.8c50.9-1.9,79.4-12.8,84.8-32.4
				c6.4-23.6-20.3-61.5-77.3-109.4c-44.6-37.6-91.6-67.6-92-67.9c-1.2-0.8-1.7-2.3-1.2-3.7c0.5-1.3,2-2.1,3.4-1.8
				c56.2,11.3,116.2,31.8,169,57.8c1.9,0.9,3.8,1.9,5.7,2.8c28.6,14.4,53.9,29.9,75.1,45.9c1.3,1,2.6,1.9,3.8,2.9
				c43.1,33.4,64.3,66.1,61.2,94.4l0,0c-1.9,17.7-13.2,33.2-33.6,46.3c-15.9,10.2-37.4,18.9-63.9,25.9
				c-39.9,10.5-79.6,13.9-88.1,14.5C1137.3,1321.1,1099.2,1378.1,1054.5,1378.1z M989.5,1294.1c18.5,47.8,38.5,74.6,58,77.5
				c45.1,6.9,85.2-54.2,105-91.2c0.5-0.9,1.4-1.5,2.5-1.6c1.7-0.1,173.9-11.5,181.6-81.4l0,0c2.8-26.1-17.5-56.9-58.9-89
				c-1.2-0.9-2.5-1.9-3.7-2.9c-20.9-15.8-45.9-31-74.2-45.3c-1.9-0.9-3.7-1.9-5.6-2.8c-47.5-23.4-101-42.3-152-54
				c17.3,11.7,48.9,33.9,79.4,59.6c59.8,50.3,86.4,89.2,79.3,115.6c-6,22.2-35.8,34.5-88.4,36.8c-4.2,9.3-24.5,51.1-52.5,51.1
				c-0.1,0-0.1,0-0.2,0c-18.2-0.1-35.2-17.9-50.7-52.8C1004.1,1243.3,997.6,1270.3,989.5,1294.1z"/>
		</g>
	</g>
	<g>
		<g>
			<circle cx="1188.8" cy="1340.2" r="42.4"/>
		</g>
		<g>
			<path d="M1188.9,1385.7c-3.3,0-6.6-0.4-9.8-1.1c-11.8-2.6-22-9.7-28.5-19.9c-6.5-10.2-8.7-22.4-6.1-34.2
				c2.6-11.8,9.7-22,19.9-28.5c10.2-6.5,22.4-8.7,34.2-6.1c11.8,2.6,22,9.7,28.5,19.9c6.5,10.2,8.7,22.4,6.1,34.2s-9.7,22-19.9,28.5
				C1205.9,1383.2,1197.5,1385.7,1188.9,1385.7z M1188.8,1300.8c-7.4,0-14.7,2.1-21.1,6.2c-8.9,5.7-15,14.4-17.3,24.7
				s-0.4,20.8,5.3,29.7l0,0c11.7,18.3,36.1,23.7,54.4,12c18.3-11.7,23.7-36.1,12-54.4c-5.7-8.9-14.4-15-24.7-17.3
				C1194.5,1301.2,1191.6,1300.8,1188.8,1300.8z"/>
		</g>
	</g>
	<g>
		<g>
			<path class="st2" d="M1007.5,1202.8c-0.3,2.1-0.6,4.2-0.9,6.2c-4.8,31-11.6,60-20.3,85.1c-0.5,1.5-1,3-1.6,4.5
				c-16.9,46.9-40.3,79.5-68.6,85.4c-72.2,15-137-149.3-137-149.3c-54.7-9.9-114.7-31.8-121.6-74.2c-4.2-25.5,26.8-57.6,57.7-82.6
				c26.6,0.5,56.2-2,87.2-7c2.1-0.3,4.2-0.7,6.2-1.1c-108.1,90.1,22.5,100.7,22.5,100.7c82.2,224.2,178.2-142.1,179.1-145.6
				C1017,1083.3,1015.7,1146.2,1007.5,1202.8z"/>
		</g>
		<g>
			<path d="M906.7,1388c-14.3,0-29.2-6.2-44.4-18.6c-14.6-12-29.5-29.7-44.3-52.7c-22.3-34.7-37.8-71.4-41-79.3
				c-43.1-7.9-114.5-28.3-122.4-76.3c-3.7-22.2,16.1-50.9,58.8-85.4c0.5-0.4,1.2-0.7,1.9-0.7c26.2,0.5,55.3-1.9,86.7-7
				c2-0.3,4.1-0.7,6.2-1.1c1.3-0.2,2.7,0.5,3.2,1.7s0.2,2.7-0.8,3.6c-32.2,26.8-45.9,48.7-40.7,65.1c8.2,25.8,61,30.3,61.6,30.4
				c1.2,0.1,2.2,0.9,2.6,2c17.5,47.8,36.7,71.6,57,70.6c24.5-1.2,52.2-38.3,80.2-107.3c21.6-53.1,35.6-106.3,36.1-108.5
				c0.4-1.4,1.7-2.3,3.1-2.2c1.4,0.1,2.6,1.2,2.8,2.6c6.7,56.9,5.7,120.3-2.7,178.6l0,0c-0.3,2.1-0.6,4.2-0.9,6.2
				c-4.9,31.7-11.8,60.5-20.4,85.6c-0.5,1.5-1,3-1.6,4.5c-18.5,51.3-43,81.6-70.8,87.3C913.4,1387.7,910.1,1388,906.7,1388z
				 M716.3,1080.9c-39.7,32.3-59,59.7-55.8,79.1c7.4,45,77.9,64.3,119.2,71.7c1,0.2,1.9,0.9,2.3,1.8c0.6,1.6,64.7,161.9,133.6,147.5
				c25.7-5.3,48.7-34.2,66.4-83.5c0.5-1.5,1-2.9,1.6-4.4c8.5-24.8,15.3-53.3,20.2-84.6c0.3-2.1,0.6-4.1,0.9-6.2
				c7.6-52.4,9-109.1,4.3-161.3c-5.8,20.1-17.1,57-32.1,94c-29.4,72.4-58.1,109.8-85.5,111.1c-0.5,0-1,0-1.5,0
				c-22.3,0-42.8-24.5-60.8-72.8c-10.2-1.1-56.4-7.5-64.9-34.4c-5.5-17.3,6.1-39,34.5-64.5C769,1079.1,741.3,1081.3,716.3,1080.9z"
				/>
		</g>
	</g>
	<g>
		<g>
			<circle class="st3" cx="733.5" cy="1286" r="42.4"/>
		</g>
		<g>
			<path d="M733.5,1331.4c-10.2,0-20.3-3.4-28.8-10.3c-19.3-15.9-22.2-44.6-6.2-63.9s44.6-22.2,63.9-6.2s22.2,44.6,6.2,63.9
				C759.6,1325.8,746.6,1331.4,733.5,1331.4z M733.5,1246.6c-11.4,0-22.7,4.9-30.5,14.4l0,0c-13.8,16.8-11.4,41.7,5.4,55.5
				c16.8,13.8,41.7,11.4,55.5-5.4c6.7-8.1,9.8-18.4,8.8-28.8c-1-10.5-6.1-19.9-14.2-26.6C751.2,1249.6,742.4,1246.6,733.5,1246.6z"
				/>
		</g>
	</g>
	<g>
		<path class="st4" d="M978.6,1017.5c-53.3,24.5-113.5,42.6-169.9,52.3h0c-2.1,0.4-4.2,0.7-6.2,1.1c-31,5-60.6,7.5-87.2,7
			c-1.6,0-3.2-0.1-4.8-0.1c-49.8-1.6-88.1-13.7-102.5-38.9c-36.6-64,99.7-176.4,99.7-176.4c-7.5-55.1-5.2-118.9,33-138.6
			c22.9-11.9,63,7.7,96.4,29.3c7.8,25.4,19.3,52.9,33.6,80.8c1,1.9,1.9,3.7,2.9,5.6c-119.1-75-88.8,52.6-88.8,52.6
			C597,1039.7,975,1017.7,978.6,1017.5z"/>
		<path d="M721.9,1080.9c-2.3,0-4.5,0-6.7-0.1c-1.6,0-3.2-0.1-4.8-0.1c-54.5-1.7-90.8-15.7-105-40.4c-8.8-15.4-8.8-34.7-0.1-57.2
			c6.9-17.6,19.1-37.2,36.5-58.5c26.1-32,56.2-58,62.7-63.5c-5.8-43.4-8.5-117.6,34.8-140c19.9-10.3,53.4-0.4,99.4,29.5
			c0.6,0.4,1,1,1.2,1.6c7.7,25.1,18.9,52.1,33.4,80.3c0.7,1.3,1.3,2.5,2,3.8l0.9,1.8c0.6,1.2,0.4,2.7-0.6,3.6c-1,0.9-2.5,1-3.6,0.3
			c-35.5-22.3-60.5-28.6-74.5-18.6c-22,15.7-10,67.4-9.9,67.9c0.3,1.1-0.2,2.3-1.1,3c-40,31.5-56.7,57-49.5,76
			c8.6,22.8,52.2,37.7,126,43.1c55.9,4.1,109.3,1.2,115.2,0.9c1.4-0.1,2.8,0.9,3.1,2.3s-0.3,2.8-1.6,3.5
			c-52,23.9-112.6,42.6-170.7,52.6c0,0,0,0-0.1,0c-2.1,0.4-4.1,0.7-6.2,1.1C773.9,1078.6,746.7,1080.9,721.9,1080.9z M757.1,723.3
			c-5.8,0-10.9,1.1-15.1,3.3c-40.5,21-37,93.9-31.4,135.5c0.1,1-0.3,2.1-1.1,2.7c-1.3,1.1-134,111.5-99,172.6
			c13,22.8,47.6,35.7,99.9,37.4c1.6,0.1,3.1,0.1,4.7,0.1c26.2,0.5,55.3-1.9,86.7-7c2-0.3,4.1-0.7,6.2-1.1c0,0,0,0,0.1,0
			c52.2-9,106.5-25.1,154.7-45.7c-21.2,0.7-60.1,1.3-100.2-1.6c-77.4-5.6-121.5-21.4-131.2-46.9c-8.1-21.5,8.7-48.9,50-81.7
			c-2.1-10-10.3-56,12.6-72.3c14.8-10.6,39-6.2,72,12.9c-13.5-26.7-24.1-52.4-31.5-76.4C801.9,734.1,775.6,723.3,757.1,723.3z
			 M978.6,1017.5l0.2,3L978.6,1017.5z"/>
	</g>
	<g>
		<circle class="st4" cx="644.4" cy="836.2" r="42.4"/>
		<path d="M644.3,881.6c-5.5,0-11.1-1-16.5-3.1c-23.3-9.1-34.8-35.5-25.7-58.8c4.4-11.3,13-20.2,24.1-25c11.1-4.8,23.5-5.1,34.7-0.7
			c11.3,4.4,20.2,13,25,24.1c4.8,11.1,5.1,23.5,0.7,34.7C679.7,870.7,662.5,881.6,644.3,881.6z M644.4,796.8
			c-5.3,0-10.7,1.1-15.8,3.3c-9.7,4.2-17.1,11.9-20.9,21.7c-7.9,20.2,2.1,43.1,22.3,51.1s43.1-2.1,51.1-22.3
			c3.8-9.8,3.6-20.5-0.6-30.2c-4.2-9.7-11.9-17.1-21.7-20.9l0,0C654.1,797.7,649.3,796.8,644.4,796.8z"/>
	</g>
	<g>
		<path class="st5" d="M1183.5,768.8c-21.8,15.2-44.3,34.7-66.4,56.9c-1.5,1.5-2.9,3-4.4,4.5c34.5-136.5-77.4-68.2-77.4-68.2
			c-198.3-133-60.6,219.7-59.3,223c-39.8-43.2-75.6-94.8-102.3-145.4c0,0,0,0,0,0c-1-1.9-1.9-3.7-2.9-5.6
			c-14.4-27.9-25.8-55.3-33.6-80.8c-0.5-1.5-0.9-3-1.4-4.6c-13.9-47.8-14.2-88,5.3-109.5c49.6-54.6,198.6,40.3,198.6,40.3
			c50.1-24.2,111.4-41.6,142-11.5C1200,686.2,1193.8,730.4,1183.5,768.8z"/>
		<path d="M975.9,988c-0.8,0-1.6-0.3-2.2-1C935,945,898.5,893.2,871,841.2c0-0.1-0.1-0.1-0.1-0.2l-0.9-1.8c-0.7-1.3-1.3-2.6-2-3.8
			c-14.7-28.5-26-55.8-33.8-81.3c-0.5-1.5-0.9-3.1-1.4-4.6c-15.2-52.4-13.2-91.2,6-112.3c12-13.2,30.2-19.1,54.3-17.7
			c18.8,1.1,41.3,6.7,66.9,16.6c38.5,15,72.5,35.5,79.8,40c39.5-18.9,109.3-44.4,143.9-10.2c16,15.8,16.9,50.6,2.7,103.7
			c-0.2,0.7-0.6,1.3-1.2,1.7c-21.5,15-43.7,34.1-66,56.6c-1.5,1.5-2.9,3-4.4,4.5c-0.9,1-2.4,1.2-3.6,0.5c-1.2-0.7-1.8-2-1.4-3.3
			c10.3-40.6,8.5-66.4-5.3-76.6c-21.7-16-67.2,11.3-67.7,11.6c-1,0.6-2.3,0.6-3.2-0.1c-42.3-28.4-71.8-36.3-87.6-23.6
			c-19.1,15.3-19.7,61.7-1.8,134c13.8,55.6,33.7,106.9,34.6,109.1c0.5,1.3,0,2.9-1.2,3.6C977,987.9,976.5,988,975.9,988z
			 M876.3,838.2c24.7,46.9,56.8,93.6,91.3,133c-7.1-19.7-19.7-56.2-29.2-94.9c-18.8-75.8-17.5-123,3.9-140.1
			c17.9-14.4,49.2-6.9,93.1,22.3c8.9-5.1,50-27,72.7-10.3c14.6,10.8,18,35.1,10,72.5c21.2-21.1,42.4-39.2,62.9-53.6
			c13.1-49.5,12.7-83-1.4-96.8c-32.5-32.1-100.8-6.2-138.6,12c-0.9,0.5-2,0.4-2.9-0.2c-1.5-0.9-147.5-92.9-194.8-40.8
			c-17.7,19.5-19.3,56.3-4.7,106.6c0.4,1.5,0.9,3,1.3,4.5c7.7,25.1,18.9,52.1,33.4,80.3c0.7,1.3,1.3,2.5,2,3.8l0.8,1.6
			C876.2,838.1,876.3,838.2,876.3,838.2z"/>
	</g>
	<g>
		<circle class="st5" cx="1044.7" cy="612.5" r="42.4"/>
		<path d="M1044.7,657.9c-0.9,0-1.8,0-2.8-0.1c-12.1-0.7-23.2-6.1-31.3-15.2s-12.1-20.7-11.4-32.8c0.7-12.1,6.1-23.2,15.2-31.3
			s20.7-12.1,32.8-11.4c25,1.5,44.1,23,42.6,48l-3-0.2l3,0.2c-0.7,12.1-6.1,23.2-15.2,31.3C1066.4,653.9,1055.8,657.9,1044.7,657.9z
			 M1044.6,573.1c-9.6,0-18.8,3.5-26.1,9.9c-7.9,7-12.5,16.6-13.2,27.1s2.9,20.6,9.9,28.5c7,7.9,16.6,12.5,27.1,13.2
			c10.5,0.6,20.6-2.9,28.5-9.9s12.6-16.6,13.2-27.1c1.3-21.7-15.3-40.4-37-41.7C1046.2,573.1,1045.4,573.1,1044.6,573.1z"/>
	</g>
	<g>
		<g>
			<path class="st6" d="M1371,1070.2c-11.6,23.1-55.5,30.8-95.2,32.9c-21.2-16-46.7-31.5-74.7-45.6c-1.9-0.9-3.8-1.9-5.7-2.8
				c140.5-9.3,41-94.7,41-94.7c65.2-229.7-227.7,10.2-230.4,12.5c28.8-51.2,66.8-101.2,106.7-142.2c1.5-1.5,2.9-3,4.4-4.5
				c22.1-22.3,44.7-41.7,66.4-56.9c1.3-0.9,2.6-1.8,3.9-2.7c41.2-28,79.3-40.7,105.7-28.8c67.2,30.3,23,201.3,23,201.3
				C1354.7,978.8,1390.2,1031.8,1371,1070.2z"/>
		</g>
		<g>
			<path d="M1275.8,1106.1c-0.7,0-1.3-0.2-1.8-0.6c-20.9-15.8-45.9-31-74.2-45.3c-1.9-0.9-3.7-1.9-5.6-2.8c-1.2-0.6-1.9-1.9-1.6-3.3
				s1.4-2.3,2.7-2.4c41.8-2.8,65.8-12.4,71.2-28.7c8.5-25.6-31.6-60.4-32-60.8c-0.9-0.8-1.2-2-0.9-3.1c13.9-49,12.4-79.5-4.6-90.6
				c-20.5-13.4-64.7,0.3-128,39.7c-48.9,30.5-91.3,65.1-93,66.6c-1.1,0.9-2.7,0.9-3.8,0c-1.1-0.9-1.4-2.5-0.7-3.8
				c28.1-49.9,66.1-100.7,107.2-142.9c1.5-1.5,2.9-3,4.4-4.5c22.6-22.8,45.1-42,66.8-57.3c1.3-0.9,2.6-1.8,3.9-2.7
				c45.1-30.7,82.7-40.7,108.7-29c16.2,7.3,27.5,22.8,33.6,46.2c4.8,18.3,6.4,41.4,4.9,68.7c-2.3,41.2-11.4,80-13.4,88.3
				c30.2,31.8,76,90.2,54.2,133.7c-10.1,20.1-42.9,31.7-97.8,34.6C1275.8,1106.1,1275.8,1106.1,1275.8,1106.1z M1206.3,1056.8
				c26.7,13.7,50.3,28.2,70.4,43.2c51.1-2.8,82.8-13.6,91.6-31.2l0,0c20.5-40.8-25.2-97.7-54.3-128.1c-0.7-0.8-1-1.8-0.7-2.8
				c0.4-1.7,42.8-169-21.4-197.8c-24-10.8-59.5-0.9-102.8,28.5c-1.3,0.9-2.6,1.8-3.9,2.7c-21.5,15-43.7,34.1-66,56.6
				c-1.5,1.5-2.9,3-4.4,4.5c-36.9,38-71.4,82.9-98.3,127.9c16.5-12.8,47.2-36,81.2-57.1c66.3-41.3,111.6-54.6,134.4-39.6
				c19.2,12.6,21.8,44.7,7.6,95.5c7.6,6.9,41.2,39.2,32.3,65.9C1266.3,1042.2,1244.2,1052.9,1206.3,1056.8z"/>
		</g>
	</g>
	<g>
		<g>
			<circle class="st6" cx="1381.1" cy="924" r="42.4"/>
		</g>
		<g>
			<path d="M1381.1,969.4c-20.2,0-38.6-13.6-43.9-34c-6.3-24.2,8.3-49.1,32.5-55.4c11.7-3,24-1.3,34.4,4.8
				c10.5,6.1,17.9,16,20.9,27.7c3.1,11.7,1.4,24-4.8,34.4c-6.1,10.5-16,17.9-27.7,21C1388.7,968.9,1384.9,969.4,1381.1,969.4z
				 M1381.2,884.6c-3.3,0-6.7,0.4-10,1.3c-21,5.5-33.7,27-28.2,48.1c5.5,21,27,33.7,48.1,28.2l0,0c10.2-2.7,18.7-9.1,24.1-18.2
				s6.8-19.7,4.2-29.9s-9.1-18.7-18.2-24.1C1394.9,886.4,1388.1,884.6,1381.2,884.6z"/>
		</g>
	</g>
</g>
<g>
	<path class="st7" d="M1112.5,1212.5c0,0-50.5,121-102.8-9.7c8.2-56.6,9.5-119.5,2.7-177.8c-0.9,3.4-96.8,369.8-179.1,145.6
		c0,0-130.7-10.6-22.5-100.7h0c56.4-9.7,116.6-27.8,169.9-52.3c-2.1,0.1-139.3,8.1-207.9-17.5h260.8
		C1071.1,1024.6,1335.8,1204.1,1112.5,1212.5z"/>
	<path d="M1062,1266.5c-0.1,0-0.1,0-0.2,0c-19.8-0.2-38.2-21.2-54.8-62.6l-0.3-0.8l0.1-0.8c7.6-52.4,9-109.1,4.3-161.3
		c-5.8,20.3-17.2,57.3-32.4,94.6c-29.3,72-58,109.2-85.2,110.5c-22.9,1.1-43.8-23.4-62.2-72.8c-10.2-1.1-56.4-7.5-64.9-34.4
		c-6-18.9,8.3-42.9,42.6-71.5l0.8-0.7h0.8c52.2-9,106.4-25.1,154.5-45.7c-38.7,1.3-138.2,2.2-193.3-18.3l-15.6-5.8h278.3l0.8,0.5
		c13.2,8.7,59.4,39.8,99.8,75.4c51.9,45.7,74.7,81.4,67.8,106c-6.2,22-35.9,34.3-88.4,36.6C1110.3,1224.8,1090,1266.5,1062,1266.5z
		 M1012.8,1202.4c15.5,38.4,31.9,57.9,49,58.1c0.1,0,0.1,0,0.2,0c26.9,0,47.5-48.7,47.8-49.2l0.7-1.8l1.9-0.1
		c50.8-1.9,79.3-12.8,84.7-32.2c11.5-41.1-81.2-119.5-164.3-174.3h-240c70.3,17.9,182.6,11.8,187.8,11.5l15.8-0.9l-14.3,6.6
		c-51.8,23.8-112.1,42.4-169.9,52.4c-31.8,26.6-45.2,48.3-40.1,64.6c8.2,25.7,61,30.3,61.6,30.4l1.9,0.2l0.7,1.8
		c17.5,47.8,36.7,71.6,57,70.6c24.4-1.2,52-38.1,80-106.7c21.1-51.9,34.9-103.4,36.4-109.1l4-15.4l1.8,15.7
		C1022.1,1081.3,1021.2,1144.4,1012.8,1202.4z"/>
</g>
<g>
	<path class="st7" d="M1197.7,1054.7c-47.5-23.4-101.8-42.8-155.2-54.7h226.9C1279.1,1023.6,1271.9,1049.8,1197.7,1054.7z"/>
	<path d="M1197.1,1057.8l-0.7-0.4c-48-23.6-102.9-43-154.5-54.5l-26.6-5.9h256.1l0.8,1.9c5.1,12.4,4.9,23.2-0.7,32.2
		c-9.4,15.1-34.2,24.1-73.6,26.7L1197.1,1057.8z M1067.5,1003c44.7,11.8,89.4,28.4,130.8,48.7c36.9-2.5,59.8-10.6,68.1-23.8
		c4.2-6.8,4.5-15.1,0.9-24.8L1067.5,1003L1067.5,1003z"/>
</g>
<g>
	<path d="M462.7,1183.9l7-1.8l-5.6-21.6l-7.4,1.9c-5.7,1.5-10.5,1.2-14.8-0.8c-3.9-1.9-6.6-5.8-8.2-12c-1.6-6.3-1.1-11.5,1.7-15.8
		c2.9-4.4,7.9-7.6,15.1-9.5l21.6-5.6c7.2-1.9,13.2-1.6,17.8,0.9c4.5,2.4,7.5,6.6,9.2,12.9c1.6,6.2,1.2,10.9-1.3,14.5
		c-2.7,3.8-6.8,6.4-12.5,7.9l-6.4,1.7l5.6,21.6l6-1.6c11.9-3.1,20.6-9.1,25.9-17.7c5.3-8.7,6.4-19.4,3.2-31.7
		c-3.2-12.4-9.6-21.4-18.9-27c-9.3-5.6-21-6.6-34.6-3.1l-21.1,5.5c-13.6,3.6-23.3,10.1-28.7,19.6c-5.4,9.4-6.5,20.4-3.3,32.8
		c3.2,12.3,9.4,21.1,18.2,26.1c5.4,3.1,11.5,4.6,18.2,4.6C453.8,1185.7,458.1,1185.1,462.7,1183.9z"/>
</g>
<g>
	<polygon points="798.3,1457.9 757.6,1512 777.6,1446.7 751.7,1432.8 708.2,1485.6 730.8,1421.6 710.9,1410.9 675.9,1512.7 
		702.1,1526.7 747.7,1471.3 726.7,1540 752.8,1553.9 818.3,1468.6 	"/>
</g>
<g>
	<rect x="790.3" y="1518" transform="matrix(0.2836 -0.9589 0.9589 0.2836 -862.2609 1904.3322)" width="106.2" height="22.4"/>
</g>
<g>
	<polygon points="928.2,1493.7 906,1490.9 892.8,1596.2 962.8,1605 965.5,1583.8 917.7,1577.9 	"/>
</g>
<g>
	<path d="M1028.3,1498.1l-23.8,108.6l23.3-1.9l5.3-24.6l32.3-2.7l9.3,23.4l23.3-1.9l-41.5-103.1L1028.3,1498.1z M1037.5,1558.3
		l7.2-33.3l12.6,31.7L1037.5,1558.3z"/>
</g>
<g>
	<polygon points="1171.5,1469 1161.7,1515.7 1127,1482.9 1102.4,1490.7 1158.2,1542.2 1170.3,1580.7 1191.7,1574 1179.6,1535.5 
		1196.1,1461.3 	"/>
</g>
<g>
	<path d="M1236.7,1439.3l24.7,108.3l20.2-11.7l-5.7-24.5l28-16.2l18.4,17.2l20.2-11.7l-81.5-75.6L1236.7,1439.3z M1270.7,1489.8
		l-7.7-33.2l24.8,23.3L1270.7,1489.8z"/>
</g>
<g>
	<polygon points="1351.3,1354.3 1380,1385.3 1355.4,1408.2 1326.6,1377.2 1310.2,1392.4 1382.4,1470.3 1398.8,1455.1 1369.9,1423.8 
		1394.6,1401 1423.5,1432.2 1439.9,1417 1367.7,1339.1 	"/>
</g>
<g>
	<polygon points="1453.9,1208.2 1512.1,1263.8 1433,1248.6 1422.3,1269.3 1531.3,1289.6 1544.3,1264.6 1464.6,1187.4 	"/>
</g>
<g>
	<rect x="1515.4" y="1112.2" transform="matrix(0.2992 -0.9542 0.9542 0.2992 -42.0839 2273.3157)" width="22.4" height="106.2"/>
</g>
<g>
	<rect x="1531.7" y="1045.6" transform="matrix(0.1776 -0.9841 0.9841 0.1776 187.6796 2421.9182)" width="22.4" height="106.2"/>
</g>
<g>
	<polygon points="445.7,1019.6 426.4,1029.8 430.1,1008.2 414.4,993 436,989.8 445.7,970.2 455.4,989.8 477,993 461.4,1008.2 
		465.1,1029.8 	"/>
</g>
<g>
	<polygon points="1554.3,1019.6 1534.9,1029.8 1538.6,1008.2 1523,993 1544.6,989.8 1554.3,970.2 1564,989.8 1585.6,993 
		1569.9,1008.2 1573.6,1029.8 	"/>
</g>
<g>
	<path d="M594.7,1375c0.9-0.1,1.9-0.3,2.8-0.5c4.9-1.1,9.6-3.5,14-7.1l1.4-1.1c5.3-4.4,8.8-9.5,10.6-15.1c1.7-5.6,1.9-11.3,0.5-17.2
		c-1.4-5.7-4.2-11.1-8.4-16.1l-26.9-32.2l-81.6,68l14.4,17.2l29.5-24.6l12.5,15c4.1,4.9,8.8,8.6,14.1,11
		C583.1,1374.8,588.8,1375.7,594.7,1375z M586.7,1316.5l11.7,14.1c3.1,3.7,4.6,7.2,4.5,10.4c0,1.9-0.6,4.8-4.5,8.1l-1,0.9
		c-4,3.3-6.9,3.3-8.8,3c-3.3-0.5-6.4-2.6-9.4-6.3l-11.7-14.1L586.7,1316.5z"/>
</g>
<g>
	<path d="M533.3,1191.5l-18.7,9.9l6.3,11.8l-56.3,29.9l-6.3-11.8l-18.7,9.9l20,37.6c6.5,12.3,14.9,20.3,25,23.8
		c1.3,0.5,2.6,0.8,4,1.1c9.3,2,19.7-0.1,31.1-6.1l15.6-8.3c13-6.9,21-15.7,23.7-26.2c2.8-10.4,0.8-21.8-5.7-34.1L533.3,1191.5z
		 M531.1,1233.1l3.2,6.1c3.6,6.8,4.8,12.8,3.5,17.6c-1.3,4.7-5.6,9-12.7,12.8l-16.5,8.7c-7,3.7-12.9,4.8-17.6,3.3
		c-4.8-1.6-9.1-5.8-12.7-12.7l-3.2-6.1L531.1,1233.1z"/>
</g>
</svg>
